<svg width="39" height="39" viewBox="0 0 39 39" fill="none" xmlns="http://www.w3.org/2000/svg">
<g clip-path="url(#clip0)">
<path d="M37.9767 30.0866L30.0829 24.8224C29.0812 24.1597 27.7384 24.3778 26.9978 25.3235L24.6984 28.2799C24.4029 28.6695 23.8658 28.7825 23.4383 28.5451L23.0009 28.3039C21.551 27.5136 19.7469 26.5297 16.1119 22.8935C12.477 19.2573 11.4911 17.4518 10.7008 16.0045L10.461 15.5671C10.2202 15.1397 10.3311 14.6003 10.7209 14.3024L13.6753 12.0037C14.6206 11.2631 14.839 9.92067 14.1771 8.91862L8.91286 1.02488C8.2345 0.00448553 6.87351 -0.301832 5.82333 0.329463L2.52246 2.3123C1.4853 2.92204 0.724385 3.90954 0.399255 5.06787C-0.789383 9.39882 0.104818 16.8734 11.1155 27.8853C19.8743 36.6434 26.3948 38.9987 30.8765 38.9987C31.908 39.0031 32.9354 38.8689 33.9311 38.5997C35.0896 38.2749 36.0773 37.5139 36.6866 36.4765L38.6715 33.1776C39.3037 32.1272 38.9975 30.7654 37.9767 30.0866ZM37.5516 32.5107L35.5714 35.8116C35.1338 36.5604 34.4235 37.111 33.5891 37.348C29.5909 38.4457 22.6058 37.5365 12.0351 26.9658C1.46436 16.3951 0.555232 9.41054 1.65293 5.41173C1.89025 4.5764 2.4415 3.86514 3.19123 3.42691L6.4921 1.44666C6.94777 1.17248 7.53847 1.30538 7.83283 1.74818L10.6924 6.04143L13.0926 9.64123C13.38 10.0759 13.2855 10.6584 12.8755 10.9801L9.92039 13.2787C9.02109 13.9664 8.76428 15.2106 9.31796 16.1981L9.55261 16.6245C10.3832 18.1478 11.4159 20.0429 15.186 23.8124C18.9561 27.5818 20.8506 28.6146 22.3733 29.4451L22.8002 29.6804C23.7876 30.234 25.0319 29.9773 25.7196 29.0779L28.0183 26.1228C28.34 25.713 28.9223 25.6187 29.3571 25.9058L37.2502 31.17C37.6933 31.4641 37.8262 32.0551 37.5516 32.5107Z" fill="#FF7D34"/>
<path d="M22.0989 6.50337C28.1979 6.51015 33.1404 11.4527 33.1472 17.5518C33.1472 17.9107 33.4382 18.2016 33.7971 18.2016C34.1561 18.2016 34.447 17.9107 34.447 17.5518C34.4395 10.7352 28.9155 5.21108 22.0989 5.20361C21.7399 5.20361 21.449 5.49455 21.449 5.85349C21.449 6.21244 21.7399 6.50337 22.0989 6.50337Z" fill="#FF7D34"/>
<path d="M22.0989 10.4027C26.0452 10.4074 29.2432 13.6053 29.2478 17.5517C29.2478 17.9106 29.5388 18.2016 29.8977 18.2016C30.2566 18.2016 30.5476 17.9106 30.5476 17.5517C30.5422 12.8878 26.7627 9.1083 22.0989 9.10297C21.7399 9.10297 21.449 9.3939 21.449 9.75284C21.449 10.1118 21.7399 10.4027 22.0989 10.4027Z" fill="#FF7D34"/>
<path d="M22.0989 14.3022C23.8926 14.3043 25.3462 15.7579 25.3484 17.5517C25.3484 17.9107 25.6394 18.2016 25.9983 18.2016C26.3571 18.2016 26.6482 17.9107 26.6482 17.5517C26.6453 15.0404 24.6102 13.0053 22.0989 13.0024C21.7399 13.0024 21.449 13.2934 21.449 13.6523C21.449 14.0113 21.7399 14.3022 22.0989 14.3022Z" fill="#FF7D34"/>
</g>
<defs>
<clipPath id="clip0">
<rect width="39" height="39" fill="white"/>
</clipPath>
</defs>
</svg>
